<svg width="182" height="115" viewBox="0 0 182 115" fill="none" xmlns="http://www.w3.org/2000/svg">
<g clip-path="url(#clip0_96_613)">
<path d="M55.3896 97.7109V85.8877H58.7963L58.9521 89.7397L58.2842 88.9826C58.4771 88.3592 58.774 87.7951 59.1748 87.2904C59.5756 86.7857 60.0506 86.3849 60.5998 86.0881C61.1639 85.7912 61.7502 85.6427 62.3588 85.6427C62.626 85.6427 62.8709 85.665 63.0936 85.7095C63.3311 85.7392 63.5389 85.7912 63.717 85.8654L62.7596 89.8065C62.5963 89.7174 62.3737 89.6432 62.0916 89.5838C61.8244 89.5096 61.5424 89.4725 61.2455 89.4725C60.919 89.4725 60.6147 89.5319 60.3326 89.6506C60.0654 89.7545 59.8279 89.9104 59.6201 90.1182C59.4271 90.326 59.2713 90.5709 59.1525 90.853C59.0486 91.135 58.9967 91.4541 58.9967 91.8104V97.7109H55.3896ZM74.4624 97.9335C73.1562 97.9335 72.0132 97.6738 71.0335 97.1542C70.0686 96.6347 69.319 95.9222 68.7846 95.0167C68.2651 94.0964 68.0053 93.0499 68.0053 91.8772C68.0053 90.9569 68.1538 90.1182 68.4506 89.3611C68.7475 88.5893 69.1631 87.9287 69.6975 87.3795C70.2468 86.8303 70.885 86.4072 71.6124 86.1103C72.3546 85.7986 73.1636 85.6427 74.0394 85.6427C74.8706 85.6427 75.6277 85.7912 76.3105 86.0881C76.9933 86.3849 77.5871 86.8006 78.0918 87.335C78.5965 87.8693 78.9824 88.5002 79.2496 89.2276C79.5168 89.9549 79.643 90.7491 79.6281 91.61L79.6059 92.5897H70.2096L69.6753 90.5635H76.689L76.3105 90.9643V90.519C76.2808 90.1479 76.1621 89.8287 75.9542 89.5615C75.7613 89.2795 75.5015 89.0568 75.1749 88.8936C74.8632 88.7303 74.507 88.6486 74.1062 88.6486C73.5124 88.6486 73.0077 88.7674 72.5921 89.0049C72.1913 89.2276 71.887 89.5541 71.6792 89.9846C71.4714 90.4151 71.3675 90.9495 71.3675 91.5877C71.3675 92.226 71.5011 92.7901 71.7683 93.2799C72.0503 93.7698 72.4511 94.1483 72.9706 94.4155C73.505 94.6827 74.1359 94.8163 74.8632 94.8163C75.3531 94.8163 75.7984 94.7421 76.1992 94.5936C76.6 94.4452 77.0304 94.1929 77.4906 93.8366L79.1605 96.1968C78.7004 96.5827 78.2105 96.9093 77.691 97.1765C77.1715 97.4288 76.6371 97.6144 76.0878 97.7331C75.5535 97.8667 75.0117 97.9335 74.4624 97.9335ZM90.8705 97.9335C89.7275 97.9335 88.6959 97.6663 87.7755 97.132C86.8701 96.5976 86.1575 95.8702 85.638 94.9499C85.1185 94.0147 84.8587 92.9682 84.8587 91.8104C84.8587 90.6229 85.1185 89.569 85.638 88.6486C86.1575 87.7135 86.8701 86.9787 87.7755 86.4443C88.6959 85.9099 89.7275 85.6427 90.8705 85.6427C91.9244 85.6427 92.8893 85.8357 93.7651 86.2217C94.6557 86.5928 95.3534 87.1049 95.8581 87.758L93.9209 90.1182C93.728 89.8658 93.4904 89.6358 93.2084 89.4279C92.9264 89.2201 92.6147 89.0568 92.2732 88.9381C91.9318 88.8193 91.5756 88.76 91.2045 88.76C90.6404 88.76 90.1431 88.8936 89.7127 89.1608C89.2822 89.4131 88.9482 89.7694 88.7107 90.2295C88.4732 90.6897 88.3544 91.2092 88.3544 91.7881C88.3544 92.3522 88.4732 92.8643 88.7107 93.3245C88.963 93.7698 89.3045 94.1261 89.7349 94.3932C90.1654 94.6604 90.6478 94.794 91.1822 94.794C91.5682 94.794 91.9244 94.7421 92.251 94.6382C92.5775 94.5343 92.8744 94.3858 93.1416 94.1929C93.4236 93.9999 93.6834 93.7698 93.9209 93.5026L95.8581 95.8628C95.3534 96.4862 94.6483 96.9909 93.7428 97.3769C92.8373 97.748 91.8799 97.9335 90.8705 97.9335ZM102.789 102.832L105.483 96.5085L105.528 98.3788L99.8052 85.8877H103.858L106.351 91.8549C106.485 92.137 106.611 92.4561 106.73 92.8124C106.849 93.1686 106.938 93.5026 106.997 93.8143L106.485 94.1038C106.574 93.8811 106.671 93.5991 106.774 93.2577C106.893 92.9163 107.019 92.5526 107.153 92.1667L109.335 85.8877H113.41L108.4 97.7109L106.374 102.832H102.789ZM123.86 97.9335C122.717 97.9335 121.685 97.6663 120.765 97.132C119.859 96.5976 119.147 95.8702 118.627 94.9499C118.108 94.0147 117.848 92.9682 117.848 91.8104C117.848 90.6229 118.108 89.569 118.627 88.6486C119.147 87.7135 119.859 86.9787 120.765 86.4443C121.685 85.9099 122.717 85.6427 123.86 85.6427C124.914 85.6427 125.878 85.8357 126.754 86.2217C127.645 86.5928 128.343 87.1049 128.847 87.758L126.91 90.1182C126.717 89.8658 126.48 89.6358 126.198 89.4279C125.916 89.2201 125.604 89.0568 125.262 88.9381C124.921 88.8193 124.565 88.76 124.194 88.76C123.63 88.76 123.132 88.8936 122.702 89.1608C122.271 89.4131 121.937 89.7694 121.7 90.2295C121.462 90.6897 121.344 91.2092 121.344 91.7881C121.344 92.3522 121.462 92.8643 121.7 93.3245C121.952 93.7698 122.294 94.1261 122.724 94.3932C123.155 94.6604 123.637 94.794 124.171 94.794C124.557 94.794 124.914 94.7421 125.24 94.6382C125.567 94.5343 125.864 94.3858 126.131 94.1929C126.413 93.9999 126.673 93.7698 126.91 93.5026L128.847 95.8628C128.343 96.4862 127.637 96.9909 126.732 97.3769C125.827 97.748 124.869 97.9335 123.86 97.9335ZM134.59 97.7109V81.2341H138.175V97.7109H134.59ZM150.554 97.9335C149.247 97.9335 148.104 97.6738 147.125 97.1542C146.16 96.6347 145.41 95.9222 144.876 95.0167C144.356 94.0964 144.096 93.0499 144.096 91.8772C144.096 90.9569 144.245 90.1182 144.542 89.3611C144.839 88.5893 145.254 87.9287 145.789 87.3795C146.338 86.8303 146.976 86.4072 147.704 86.1103C148.446 85.7986 149.255 85.6427 150.131 85.6427C150.962 85.6427 151.719 85.7912 152.402 86.0881C153.084 86.3849 153.678 86.8006 154.183 87.335C154.688 87.8693 155.074 88.5002 155.341 89.2276C155.608 89.9549 155.734 90.7491 155.719 91.61L155.697 92.5897H146.301L145.766 90.5635H152.78L152.402 90.9643V90.519C152.372 90.1479 152.253 89.8287 152.045 89.5615C151.852 89.2795 151.593 89.0568 151.266 88.8936C150.954 88.7303 150.598 88.6486 150.197 88.6486C149.604 88.6486 149.099 88.7674 148.683 89.0049C148.282 89.2276 147.978 89.5541 147.77 89.9846C147.563 90.4151 147.459 90.9495 147.459 91.5877C147.459 92.226 147.592 92.7901 147.859 93.2799C148.141 93.7698 148.542 94.1483 149.062 94.4155C149.596 94.6827 150.227 94.8163 150.954 94.8163C151.444 94.8163 151.89 94.7421 152.29 94.5936C152.691 94.4452 153.122 94.1929 153.582 93.8366L155.252 96.1968C154.792 96.5827 154.302 96.9093 153.782 97.1765C153.263 97.4288 152.728 97.6144 152.179 97.7331C151.645 97.8667 151.103 97.9335 150.554 97.9335ZM165.759 97.9335C164.631 97.9335 163.622 97.7554 162.731 97.3991C161.84 97.028 161.128 96.5233 160.594 95.8851L162.776 94.0147C163.236 94.4749 163.755 94.8163 164.334 95.039C164.913 95.2468 165.462 95.3507 165.982 95.3507C166.175 95.3507 166.346 95.3284 166.494 95.2839C166.642 95.2393 166.769 95.18 166.873 95.1058C166.991 95.0167 167.08 94.9202 167.14 94.8163C167.199 94.6975 167.229 94.5639 167.229 94.4155C167.229 94.1186 167.103 93.896 166.85 93.7475C166.732 93.6733 166.516 93.5842 166.205 93.4803C165.893 93.3616 165.492 93.2428 165.002 93.1241C164.305 92.946 163.696 92.7307 163.176 92.4784C162.672 92.226 162.256 91.9366 161.93 91.61C161.633 91.3131 161.403 90.9717 161.239 90.5858C161.091 90.1998 161.017 89.7694 161.017 89.2944C161.017 88.567 161.232 87.9287 161.662 87.3795C162.108 86.8303 162.687 86.4072 163.399 86.1103C164.112 85.7986 164.883 85.6427 165.715 85.6427C166.368 85.6427 166.984 85.717 167.563 85.8654C168.157 86.0138 168.706 86.2217 169.21 86.4888C169.73 86.756 170.19 87.0752 170.591 87.4463L168.698 89.5615C168.446 89.3092 168.149 89.0865 167.808 88.8936C167.466 88.6858 167.125 88.5225 166.783 88.4037C166.442 88.2701 166.123 88.2033 165.826 88.2033C165.603 88.2033 165.403 88.2256 165.225 88.2701C165.062 88.2998 164.921 88.3592 164.802 88.4482C164.698 88.5225 164.616 88.619 164.557 88.7377C164.498 88.8416 164.468 88.9604 164.468 89.094C164.468 89.2572 164.505 89.4057 164.579 89.5393C164.668 89.658 164.787 89.7694 164.935 89.8733C165.069 89.9475 165.299 90.044 165.626 90.1627C165.967 90.2815 166.412 90.4151 166.962 90.5635C167.659 90.7565 168.253 90.9791 168.743 91.2315C169.248 91.469 169.648 91.751 169.945 92.0776C170.198 92.3299 170.376 92.6268 170.48 92.9682C170.598 93.2948 170.658 93.651 170.658 94.037C170.658 94.794 170.443 95.4694 170.012 96.0632C169.596 96.6421 169.018 97.1023 168.275 97.4437C167.548 97.7702 166.709 97.9335 165.759 97.9335Z" fill="#008036"/>
<path d="M18.8944 83.1255C16.2625 82.7895 14.0786 81.9496 12.3427 80.6056C10.6628 79.2057 9.82284 77.6938 9.82284 76.0699C9.82284 75.0059 10.2988 74.054 11.2508 73.214C12.2027 72.3181 13.4626 71.8701 15.0306 71.8701L21.0782 77.9178C23.2061 77.9178 25.25 77.8058 27.2099 77.5818C29.1698 77.3018 30.8777 76.8538 32.3336 76.2379C33.8456 75.6219 35.0495 74.8379 35.9455 73.886C36.8414 72.878 37.2894 71.6461 37.2894 70.1902C37.2894 66.5504 34.4335 64.7305 28.7218 64.7305C27.2099 64.7305 25.446 64.8705 23.4301 65.1504C21.4142 65.4304 19.2583 65.8784 16.9625 66.4944C15.9545 65.7104 14.9466 64.8705 13.9386 63.9745C12.9867 63.0226 12.1187 62.0146 11.3348 60.9507C10.6068 59.8867 10.0188 58.7668 9.57085 57.5908C9.12287 56.3589 8.89888 55.043 8.89888 53.643C8.89888 52.2431 9.20687 50.9552 9.82284 49.7793C10.4388 48.5473 11.2788 47.5114 12.3427 46.6714C13.4626 45.7755 14.7786 45.0755 16.2905 44.5715C17.8584 44.0676 19.5663 43.8156 21.4142 43.8156H32.8376V35.752H4.69911V30.3763H48.3768V35.752H39.3053V49.3593H23.5141C21.2182 49.3593 19.3143 49.7513 17.8024 50.5352C16.3465 51.2632 15.6185 52.6071 15.6185 54.567C15.6185 56.5269 16.5705 58.4308 18.4744 60.2787C20.2663 59.8307 22.0582 59.4947 23.8501 59.2708C25.642 58.9908 27.5179 58.8508 29.4778 58.8508C31.8297 58.8508 33.9296 59.1588 35.7775 59.7747C37.6254 60.3907 39.1653 61.2306 40.3972 62.2946C41.6292 63.3025 42.5531 64.5065 43.1691 65.9064C43.841 67.2503 44.177 68.6783 44.177 70.1902C44.177 72.2621 43.673 74.082 42.6651 75.6499C41.6572 77.2178 40.2852 78.5337 38.5493 79.5977C36.8134 80.6616 34.7415 81.5016 32.3336 82.1175C29.9258 82.7335 27.3499 83.1255 24.6061 83.2935L34.2655 91.945L29.0578 95.9768L18.8944 83.1255ZM54.2565 35.752H46.6969V30.3763H53.6685C53.3325 29.7603 52.9965 28.9484 52.6606 27.9404C52.3806 26.8765 52.2406 25.7845 52.2406 24.6646C52.2406 20.8008 53.8085 17.7489 56.9443 15.5091C60.0802 13.2692 64.4759 12.1492 70.1316 12.1492C73.9394 12.1492 77.5233 12.8212 80.8831 14.1651C84.2989 15.5091 87.3507 17.161 90.0386 19.1209C92.7824 21.0808 95.1623 23.1527 97.1782 25.3365C99.1941 27.5204 100.762 29.4803 101.882 31.2162L102.638 32.3922L97.7662 35.08L96.6742 33.5681C95.4423 31.7762 93.9024 29.9563 92.0545 28.1084C90.2066 26.2605 88.1347 24.5806 85.8388 23.0687C83.5429 21.5567 81.0791 20.3248 78.4472 19.3729C75.8153 18.3649 73.1275 17.8609 70.3836 17.8609C66.5198 17.8609 63.664 18.6729 61.8161 20.2968C60.0242 21.8647 59.1282 23.8246 59.1282 26.1765C59.1282 26.8485 59.1842 27.5484 59.2962 28.2764C59.4082 28.9484 59.6322 29.6483 59.9682 30.3763H67.5278V35.752H60.8081V83.2935H54.2565V35.752ZM79.2484 66.6624C76.8966 65.0384 74.9087 63.1905 73.2848 61.1187C71.6608 58.9908 70.8489 56.6669 70.8489 54.147C70.8489 52.6911 71.0729 51.3472 71.5209 50.1152C72.0248 48.8273 72.7528 47.7354 73.7047 46.8394C74.7127 45.8875 75.9726 45.1595 77.4845 44.6555C78.9965 44.0956 80.8164 43.8156 82.9442 43.8156H94.6196V35.752H65.8092V30.3763H110.075V35.752H101.171V49.3593H84.1202C81.9923 49.3593 80.3684 49.8353 79.2484 50.7872C78.1285 51.6832 77.5685 52.8871 77.5685 54.399C77.5685 55.519 77.8765 56.5829 78.4925 57.5908C79.1084 58.5428 79.8644 59.4107 80.7604 60.1947C82.2723 59.6347 83.7282 59.2428 85.1281 59.0188C86.5841 58.7388 88.124 58.5988 89.7479 58.5988C92.0438 58.5988 94.1157 58.9068 95.9636 59.5227C97.8675 60.0827 99.4914 60.9227 100.835 62.0426C102.179 63.1065 103.215 64.3945 103.943 65.9064C104.671 67.4183 105.035 69.0982 105.035 70.9461C105.035 72.738 104.643 74.4179 103.859 75.9859C103.131 77.5538 102.067 78.9257 100.667 80.1016C99.2674 81.2216 97.5315 82.1175 95.4596 82.7895C93.4437 83.4055 91.1478 83.7135 88.5719 83.7135C84.5962 83.7135 80.9004 83.0135 77.4845 81.6136C74.1247 80.2136 71.2969 78.5337 69.001 76.5738L72.5288 71.8701C74.7127 73.774 77.1486 75.2579 79.8364 76.3218C82.5243 77.3298 85.3801 77.8338 88.404 77.8338C91.7078 77.8338 94.1717 77.2458 95.7956 76.0699C97.4755 74.8379 98.3154 73.102 98.3154 70.8621C98.3154 68.6783 97.5595 67.0543 96.0476 65.9904C94.5916 64.8705 92.4357 64.3105 89.5799 64.3105C88.124 64.3105 86.5281 64.5065 84.7921 64.8985C83.0562 65.2344 81.2083 65.8224 79.2484 66.6624ZM149.055 35.752V83.2935H142.503V68.4263C141.551 69.2662 140.179 70.0502 138.387 70.7781C136.595 71.5061 134.187 71.8701 131.164 71.8701C128.7 71.8701 126.32 71.4501 124.024 70.6102C121.728 69.7702 119.684 68.5103 117.892 66.8304C116.1 65.0944 114.644 62.9666 113.525 60.4467C112.405 57.8708 111.817 54.903 111.761 51.5432L114.196 51.4592C118.396 51.3472 121.308 50.6752 122.932 49.4433C124.612 48.1553 125.452 46.2514 125.452 43.7316C125.452 42.1637 125.116 40.7357 124.444 39.4478C123.772 38.1039 122.904 36.8719 121.84 35.752H107.561V30.3763H156.614V35.752H149.055ZM142.503 35.752H128.392C129.344 36.7039 130.212 37.9359 130.996 39.4478C131.78 40.9037 132.172 42.5836 132.172 44.4875C132.172 48.1273 130.968 51.0112 128.56 53.1391C126.152 55.211 122.736 56.3869 118.312 56.6669C118.872 59.5227 120.272 61.8186 122.512 63.5545C124.752 65.2904 127.72 66.1584 131.416 66.1584C133.767 66.1584 135.923 65.7384 137.883 64.8985C139.899 64.0585 141.439 62.9666 142.503 61.6226V35.752ZM162.532 35.752H154.972V30.3763H176.643V35.752H169.084V83.2935H162.532V35.752Z" fill="black"/>
<circle cx="31.8499" cy="14.6043" r="11.2761" fill="#008036"/>
</g>
<defs>
<clipPath id="clip0_96_613">
<rect width="182" height="114.739" fill="white" transform="translate(0 0.163044)"/>
</clipPath>
</defs>
</svg>
